<svg xmlns="http://www.w3.org/2000/svg" viewBox="0 0 100 106">
  <!-- Reelist mark: Play Reel, 3D, brand red. -->
  <defs>
    <radialGradient id="gRed" cx="35%" cy="28%" r="85%">
      <stop offset="0%" stop-color="#F43F5E"/>
      <stop offset="45%" stop-color="#BE123C"/>
      <stop offset="100%" stop-color="#881337"/>
    </radialGradient>
    <linearGradient id="gGloss" x1="0" y1="0" x2="0" y2="1">
      <stop offset="0%" stop-color="#FFFFFF" stop-opacity="0.5"/>
      <stop offset="100%" stop-color="#FFFFFF" stop-opacity="0"/>
    </linearGradient>
    <filter id="blur2" x="-60%" y="-60%" width="220%" height="220%">
      <feGaussianBlur stdDeviation="2"/>
    </filter>
    <mask id="m">
      <rect x="-10" y="-10" width="120" height="120" fill="#fff"/>
      <circle cx="50" cy="18.5" r="6.5" fill="#000"/>
      <circle cx="77.3" cy="34.2" r="6.5" fill="#000"/>
      <circle cx="77.3" cy="65.8" r="6.5" fill="#000"/>
      <circle cx="50" cy="81.5" r="6.5" fill="#000"/>
      <circle cx="22.7" cy="65.8" r="6.5" fill="#000"/>
      <circle cx="22.7" cy="34.2" r="6.5" fill="#000"/>
      <path d="M44.5 37.5 L66.5 50 L44.5 62.5 Z" fill="#000" stroke="#000" stroke-width="7" stroke-linejoin="round"/>
    </mask>
  </defs>
  <ellipse cx="50" cy="100" rx="33" ry="4" fill="#000" opacity="0.20" filter="url(#blur2)"/>
  <g transform="translate(0,5)">
    <circle cx="50" cy="50" r="43" fill="#7A0F2E" mask="url(#m)"/>
  </g>
  <circle cx="50" cy="50" r="43" fill="url(#gRed)" mask="url(#m)"/>
  <g fill="none" stroke="#000" opacity="0.28" mask="url(#m)">
    <circle cx="50" cy="18.5" r="6.5" stroke-width="2.5"/>
    <circle cx="77.3" cy="34.2" r="6.5" stroke-width="2.5"/>
    <circle cx="77.3" cy="65.8" r="6.5" stroke-width="2.5"/>
    <circle cx="50" cy="81.5" r="6.5" stroke-width="2.5"/>
    <circle cx="22.7" cy="65.8" r="6.5" stroke-width="2.5"/>
    <circle cx="22.7" cy="34.2" r="6.5" stroke-width="2.5"/>
    <path d="M44.5 37.5 L66.5 50 L44.5 62.5 Z" stroke-width="12" stroke-linejoin="round"/>
  </g>
  <ellipse cx="42" cy="28" rx="30" ry="16" fill="url(#gGloss)" mask="url(#m)"/>
  <circle cx="50" cy="50" r="42" fill="none" stroke="#FFF" opacity="0.16" stroke-width="1.5" mask="url(#m)"/>
</svg>
